<mxfile host="app.diagrams.net" modified="2024-03-03T17:35:28.830Z" agent="Mozilla/5.0 (Windows NT 10.0; Win64; x64) AppleWebKit/537.36 (KHTML, like Gecko) Chrome/121.0.0.0 Safari/537.36" version="23.1.7" etag="jaPpFJnE3sYaAscqgByH" type="device">
  <diagram id="Cmftxj2f6Yi3PV9scG8a" name="Страница — 1">
    <mxGraphModel dx="4144" dy="2088" grid="1" gridSize="10" guides="1" tooltips="1" connect="1" arrows="1" fold="1" page="1" pageScale="1" pageWidth="3300" pageHeight="4681" math="0" shadow="0">
      <root>
        <mxCell id="0" />
        <mxCell id="1" parent="0" />
        <mxCell id="lHNl9456R37QV3BzGGLT-1" value="Авторизация" style="rounded=1;whiteSpace=wrap;html=1;" vertex="1" parent="1">
          <mxGeometry x="230" y="260" width="90" height="40" as="geometry" />
        </mxCell>
        <mxCell id="lHNl9456R37QV3BzGGLT-2" style="edgeStyle=orthogonalEdgeStyle;rounded=0;orthogonalLoop=1;jettySize=auto;html=1;dashed=1;endArrow=none;endFill=0;" edge="1" parent="1" source="lHNl9456R37QV3BzGGLT-3" target="lHNl9456R37QV3BzGGLT-5">
          <mxGeometry relative="1" as="geometry" />
        </mxCell>
        <mxCell id="lHNl9456R37QV3BzGGLT-3" value="Администратор" style="shape=umlActor;verticalLabelPosition=bottom;verticalAlign=top;html=1;outlineConnect=0;" vertex="1" parent="1">
          <mxGeometry x="390" y="60" width="30" height="60" as="geometry" />
        </mxCell>
        <mxCell id="lHNl9456R37QV3BzGGLT-4" style="edgeStyle=orthogonalEdgeStyle;rounded=0;orthogonalLoop=1;jettySize=auto;html=1;entryX=-0.007;entryY=0.1;entryDx=0;entryDy=0;exitX=1;exitY=0.1;exitDx=0;exitDy=0;exitPerimeter=0;entryPerimeter=0;" edge="1" parent="1" source="lHNl9456R37QV3BzGGLT-5" target="lHNl9456R37QV3BzGGLT-8">
          <mxGeometry relative="1" as="geometry" />
        </mxCell>
        <mxCell id="lHNl9456R37QV3BzGGLT-5" value="" style="rounded=0;whiteSpace=wrap;html=1;" vertex="1" parent="1">
          <mxGeometry x="400" y="180" width="10" height="200" as="geometry" />
        </mxCell>
        <mxCell id="lHNl9456R37QV3BzGGLT-6" style="edgeStyle=orthogonalEdgeStyle;rounded=0;orthogonalLoop=1;jettySize=auto;html=1;entryX=0.5;entryY=0;entryDx=0;entryDy=0;dashed=1;endArrow=none;endFill=0;" edge="1" parent="1" source="lHNl9456R37QV3BzGGLT-7" target="lHNl9456R37QV3BzGGLT-8">
          <mxGeometry relative="1" as="geometry" />
        </mxCell>
        <mxCell id="lHNl9456R37QV3BzGGLT-7" value="Клиент" style="rounded=1;whiteSpace=wrap;html=1;" vertex="1" parent="1">
          <mxGeometry x="560" y="70" width="90" height="40" as="geometry" />
        </mxCell>
        <mxCell id="lHNl9456R37QV3BzGGLT-8" value="" style="rounded=0;whiteSpace=wrap;html=1;" vertex="1" parent="1">
          <mxGeometry x="600" y="180" width="10" height="200" as="geometry" />
        </mxCell>
        <mxCell id="lHNl9456R37QV3BzGGLT-9" value="Сервер" style="rounded=1;whiteSpace=wrap;html=1;" vertex="1" parent="1">
          <mxGeometry x="760" y="70" width="90" height="40" as="geometry" />
        </mxCell>
        <mxCell id="lHNl9456R37QV3BzGGLT-10" value="" style="rounded=0;whiteSpace=wrap;html=1;" vertex="1" parent="1">
          <mxGeometry x="800" y="180" width="10" height="200" as="geometry" />
        </mxCell>
        <mxCell id="lHNl9456R37QV3BzGGLT-11" value="БД" style="rounded=1;whiteSpace=wrap;html=1;" vertex="1" parent="1">
          <mxGeometry x="960" y="70" width="90" height="40" as="geometry" />
        </mxCell>
        <mxCell id="lHNl9456R37QV3BzGGLT-12" style="edgeStyle=orthogonalEdgeStyle;rounded=0;orthogonalLoop=1;jettySize=auto;html=1;exitX=0;exitY=0.75;exitDx=0;exitDy=0;entryX=0.995;entryY=0.851;entryDx=0;entryDy=0;entryPerimeter=0;dashed=1;endArrow=open;endFill=0;" edge="1" parent="1" target="lHNl9456R37QV3BzGGLT-10">
          <mxGeometry relative="1" as="geometry">
            <mxPoint x="1004.0000000000005" y="350.04" as="sourcePoint" />
            <mxPoint x="814" y="350.8400000000002" as="targetPoint" />
            <Array as="points">
              <mxPoint x="904" y="350" />
            </Array>
          </mxGeometry>
        </mxCell>
        <mxCell id="lHNl9456R37QV3BzGGLT-13" value="" style="rounded=0;whiteSpace=wrap;html=1;" vertex="1" parent="1">
          <mxGeometry x="1000" y="250" width="10" height="120" as="geometry" />
        </mxCell>
        <mxCell id="lHNl9456R37QV3BzGGLT-14" style="edgeStyle=orthogonalEdgeStyle;rounded=0;orthogonalLoop=1;jettySize=auto;html=1;entryX=0.5;entryY=0;entryDx=0;entryDy=0;dashed=1;endArrow=none;endFill=0;" edge="1" parent="1">
          <mxGeometry relative="1" as="geometry">
            <mxPoint x="804.6199999999999" y="110" as="sourcePoint" />
            <mxPoint x="804.6199999999999" y="180" as="targetPoint" />
          </mxGeometry>
        </mxCell>
        <mxCell id="lHNl9456R37QV3BzGGLT-15" style="edgeStyle=orthogonalEdgeStyle;rounded=0;orthogonalLoop=1;jettySize=auto;html=1;dashed=1;endArrow=none;endFill=0;entryX=0.5;entryY=0;entryDx=0;entryDy=0;" edge="1" parent="1" target="lHNl9456R37QV3BzGGLT-13">
          <mxGeometry relative="1" as="geometry">
            <mxPoint x="1004.6199999999999" y="110" as="sourcePoint" />
            <mxPoint x="1005" y="230" as="targetPoint" />
          </mxGeometry>
        </mxCell>
        <mxCell id="lHNl9456R37QV3BzGGLT-16" style="edgeStyle=orthogonalEdgeStyle;rounded=0;orthogonalLoop=1;jettySize=auto;html=1;entryX=-0.007;entryY=0.1;entryDx=0;entryDy=0;exitX=1;exitY=0.1;exitDx=0;exitDy=0;exitPerimeter=0;entryPerimeter=0;" edge="1" parent="1">
          <mxGeometry relative="1" as="geometry">
            <mxPoint x="610" y="219.63" as="sourcePoint" />
            <mxPoint x="800" y="219.63" as="targetPoint" />
          </mxGeometry>
        </mxCell>
        <mxCell id="lHNl9456R37QV3BzGGLT-17" style="edgeStyle=orthogonalEdgeStyle;rounded=0;orthogonalLoop=1;jettySize=auto;html=1;entryX=-0.007;entryY=0.1;entryDx=0;entryDy=0;exitX=1;exitY=0.1;exitDx=0;exitDy=0;exitPerimeter=0;entryPerimeter=0;" edge="1" parent="1">
          <mxGeometry relative="1" as="geometry">
            <mxPoint x="810" y="300" as="sourcePoint" />
            <mxPoint x="1000" y="300" as="targetPoint" />
          </mxGeometry>
        </mxCell>
        <mxCell id="lHNl9456R37QV3BzGGLT-18" style="edgeStyle=orthogonalEdgeStyle;rounded=0;orthogonalLoop=1;jettySize=auto;html=1;exitX=1;exitY=0.1;exitDx=0;exitDy=0;exitPerimeter=0;" edge="1" parent="1">
          <mxGeometry relative="1" as="geometry">
            <mxPoint x="810" y="219.63" as="sourcePoint" />
            <mxPoint x="810" y="240" as="targetPoint" />
            <Array as="points">
              <mxPoint x="900" y="220" />
              <mxPoint x="900" y="240" />
              <mxPoint x="810" y="240" />
            </Array>
          </mxGeometry>
        </mxCell>
        <mxCell id="lHNl9456R37QV3BzGGLT-19" value="" style="rounded=0;whiteSpace=wrap;html=1;" vertex="1" parent="1">
          <mxGeometry x="1004" y="290" width="16" height="60" as="geometry" />
        </mxCell>
        <mxCell id="lHNl9456R37QV3BzGGLT-20" style="edgeStyle=orthogonalEdgeStyle;rounded=0;orthogonalLoop=1;jettySize=auto;html=1;exitX=1;exitY=0.1;exitDx=0;exitDy=0;exitPerimeter=0;" edge="1" parent="1">
          <mxGeometry relative="1" as="geometry">
            <mxPoint x="1020" y="299.85" as="sourcePoint" />
            <mxPoint x="1020" y="320.22" as="targetPoint" />
            <Array as="points">
              <mxPoint x="1110" y="300.22" />
              <mxPoint x="1110" y="320.22" />
              <mxPoint x="1020" y="320.22" />
            </Array>
          </mxGeometry>
        </mxCell>
        <mxCell id="lHNl9456R37QV3BzGGLT-21" style="edgeStyle=orthogonalEdgeStyle;rounded=0;orthogonalLoop=1;jettySize=auto;html=1;exitX=0;exitY=0.75;exitDx=0;exitDy=0;entryX=0.992;entryY=0.899;entryDx=0;entryDy=0;entryPerimeter=0;dashed=1;endArrow=open;endFill=0;" edge="1" parent="1" target="lHNl9456R37QV3BzGGLT-8">
          <mxGeometry relative="1" as="geometry">
            <mxPoint x="800" y="360" as="sourcePoint" />
            <mxPoint x="610" y="361" as="targetPoint" />
          </mxGeometry>
        </mxCell>
        <mxCell id="lHNl9456R37QV3BzGGLT-22" style="edgeStyle=orthogonalEdgeStyle;rounded=0;orthogonalLoop=1;jettySize=auto;html=1;exitX=0;exitY=0.75;exitDx=0;exitDy=0;entryX=1.034;entryY=0.993;entryDx=0;entryDy=0;entryPerimeter=0;dashed=1;endArrow=open;endFill=0;" edge="1" parent="1" target="lHNl9456R37QV3BzGGLT-5">
          <mxGeometry relative="1" as="geometry">
            <mxPoint x="601" y="378.52" as="sourcePoint" />
            <mxPoint x="411" y="379.52" as="targetPoint" />
          </mxGeometry>
        </mxCell>
        <mxCell id="lHNl9456R37QV3BzGGLT-23" value="Заполнение формы" style="text;html=1;strokeColor=none;fillColor=none;align=center;verticalAlign=middle;whiteSpace=wrap;rounded=0;" vertex="1" parent="1">
          <mxGeometry x="440" y="170" width="130" height="30" as="geometry" />
        </mxCell>
        <mxCell id="lHNl9456R37QV3BzGGLT-24" value="передача полученных данных" style="text;html=1;strokeColor=none;fillColor=none;align=center;verticalAlign=middle;whiteSpace=wrap;rounded=0;" vertex="1" parent="1">
          <mxGeometry x="640" y="180" width="130" height="30" as="geometry" />
        </mxCell>
        <mxCell id="lHNl9456R37QV3BzGGLT-25" value="Проверка корректности введённых данных" style="text;html=1;strokeColor=none;fillColor=none;align=center;verticalAlign=middle;whiteSpace=wrap;rounded=0;" vertex="1" parent="1">
          <mxGeometry x="840" y="180" width="140" height="30" as="geometry" />
        </mxCell>
        <mxCell id="lHNl9456R37QV3BzGGLT-26" value="Поиск пользователя в базе" style="text;html=1;strokeColor=none;fillColor=none;align=center;verticalAlign=middle;whiteSpace=wrap;rounded=0;" vertex="1" parent="1">
          <mxGeometry x="845" y="265" width="130" height="30" as="geometry" />
        </mxCell>
        <mxCell id="lHNl9456R37QV3BzGGLT-27" value="Выборка из БД" style="text;html=1;strokeColor=none;fillColor=none;align=center;verticalAlign=middle;whiteSpace=wrap;rounded=0;" vertex="1" parent="1">
          <mxGeometry x="1040" y="270" width="130" height="30" as="geometry" />
        </mxCell>
        <mxCell id="lHNl9456R37QV3BzGGLT-28" value="Найденное совпадение" style="text;html=1;strokeColor=none;fillColor=none;align=center;verticalAlign=middle;whiteSpace=wrap;rounded=0;" vertex="1" parent="1">
          <mxGeometry x="840" y="320" width="130" height="30" as="geometry" />
        </mxCell>
        <mxCell id="lHNl9456R37QV3BzGGLT-29" value="Результат" style="text;html=1;strokeColor=none;fillColor=none;align=center;verticalAlign=middle;whiteSpace=wrap;rounded=0;" vertex="1" parent="1">
          <mxGeometry x="640" y="330" width="130" height="30" as="geometry" />
        </mxCell>
        <mxCell id="lHNl9456R37QV3BzGGLT-30" value="Отображение главной страницы" style="text;html=1;strokeColor=none;fillColor=none;align=center;verticalAlign=middle;whiteSpace=wrap;rounded=0;" vertex="1" parent="1">
          <mxGeometry x="440" y="340" width="130" height="30" as="geometry" />
        </mxCell>
        <mxCell id="lHNl9456R37QV3BzGGLT-31" value="" style="endArrow=none;html=1;rounded=0;" edge="1" parent="1">
          <mxGeometry width="50" height="50" relative="1" as="geometry">
            <mxPoint x="200" y="420" as="sourcePoint" />
            <mxPoint x="1160" y="420" as="targetPoint" />
          </mxGeometry>
        </mxCell>
        <mxCell id="lHNl9456R37QV3BzGGLT-32" value="Добавление позиции товара" style="rounded=1;whiteSpace=wrap;html=1;" vertex="1" parent="1">
          <mxGeometry x="230" y="600" width="90" height="40" as="geometry" />
        </mxCell>
        <mxCell id="lHNl9456R37QV3BzGGLT-33" value="" style="rounded=0;whiteSpace=wrap;html=1;" vertex="1" parent="1">
          <mxGeometry x="400" y="460" width="10" height="280" as="geometry" />
        </mxCell>
        <mxCell id="lHNl9456R37QV3BzGGLT-34" style="edgeStyle=orthogonalEdgeStyle;rounded=0;orthogonalLoop=1;jettySize=auto;html=1;entryX=0.5;entryY=0;entryDx=0;entryDy=0;dashed=1;endArrow=none;endFill=0;" edge="1" parent="1" target="lHNl9456R37QV3BzGGLT-33">
          <mxGeometry relative="1" as="geometry">
            <mxPoint x="404.8299999999999" y="380" as="sourcePoint" />
            <mxPoint x="404.8299999999999" y="450" as="targetPoint" />
          </mxGeometry>
        </mxCell>
        <mxCell id="lHNl9456R37QV3BzGGLT-35" value="" style="rounded=0;whiteSpace=wrap;html=1;" vertex="1" parent="1">
          <mxGeometry x="600" y="460" width="10" height="280" as="geometry" />
        </mxCell>
        <mxCell id="lHNl9456R37QV3BzGGLT-36" style="edgeStyle=orthogonalEdgeStyle;rounded=0;orthogonalLoop=1;jettySize=auto;html=1;entryX=-0.007;entryY=0.1;entryDx=0;entryDy=0;exitX=1;exitY=0.1;exitDx=0;exitDy=0;exitPerimeter=0;entryPerimeter=0;" edge="1" parent="1">
          <mxGeometry relative="1" as="geometry">
            <mxPoint x="411" y="480" as="sourcePoint" />
            <mxPoint x="601" y="480" as="targetPoint" />
          </mxGeometry>
        </mxCell>
        <mxCell id="lHNl9456R37QV3BzGGLT-37" value="Нажатие кнопки &quot;Добавить товар&quot;" style="text;html=1;strokeColor=none;fillColor=none;align=center;verticalAlign=middle;whiteSpace=wrap;rounded=0;" vertex="1" parent="1">
          <mxGeometry x="441" y="450" width="130" height="30" as="geometry" />
        </mxCell>
        <mxCell id="lHNl9456R37QV3BzGGLT-38" value="" style="rounded=0;whiteSpace=wrap;html=1;" vertex="1" parent="1">
          <mxGeometry x="800" y="460" width="10" height="120" as="geometry" />
        </mxCell>
        <mxCell id="lHNl9456R37QV3BzGGLT-39" style="edgeStyle=orthogonalEdgeStyle;rounded=0;orthogonalLoop=1;jettySize=auto;html=1;entryX=-0.007;entryY=0.1;entryDx=0;entryDy=0;exitX=1;exitY=0.1;exitDx=0;exitDy=0;exitPerimeter=0;entryPerimeter=0;" edge="1" parent="1">
          <mxGeometry relative="1" as="geometry">
            <mxPoint x="610" y="490" as="sourcePoint" />
            <mxPoint x="800" y="490" as="targetPoint" />
          </mxGeometry>
        </mxCell>
        <mxCell id="lHNl9456R37QV3BzGGLT-40" value="Запрос на открытие формы" style="text;html=1;strokeColor=none;fillColor=none;align=center;verticalAlign=middle;whiteSpace=wrap;rounded=0;" vertex="1" parent="1">
          <mxGeometry x="640" y="460" width="130" height="30" as="geometry" />
        </mxCell>
        <mxCell id="lHNl9456R37QV3BzGGLT-41" style="edgeStyle=orthogonalEdgeStyle;rounded=0;orthogonalLoop=1;jettySize=auto;html=1;exitX=0;exitY=0.75;exitDx=0;exitDy=0;entryX=0.992;entryY=0.899;entryDx=0;entryDy=0;entryPerimeter=0;dashed=1;endArrow=open;endFill=0;" edge="1" parent="1">
          <mxGeometry relative="1" as="geometry">
            <mxPoint x="800" y="550" as="sourcePoint" />
            <mxPoint x="610" y="550" as="targetPoint" />
          </mxGeometry>
        </mxCell>
        <mxCell id="lHNl9456R37QV3BzGGLT-42" value="Открытие формы" style="text;html=1;strokeColor=none;fillColor=none;align=center;verticalAlign=middle;whiteSpace=wrap;rounded=0;" vertex="1" parent="1">
          <mxGeometry x="640" y="520" width="130" height="30" as="geometry" />
        </mxCell>
        <mxCell id="lHNl9456R37QV3BzGGLT-43" value="Отображение формы" style="text;html=1;strokeColor=none;fillColor=none;align=center;verticalAlign=middle;whiteSpace=wrap;rounded=0;" vertex="1" parent="1">
          <mxGeometry x="441" y="520" width="130" height="30" as="geometry" />
        </mxCell>
        <mxCell id="lHNl9456R37QV3BzGGLT-44" style="edgeStyle=orthogonalEdgeStyle;rounded=0;orthogonalLoop=1;jettySize=auto;html=1;exitX=0;exitY=0.75;exitDx=0;exitDy=0;entryX=0.992;entryY=0.899;entryDx=0;entryDy=0;entryPerimeter=0;dashed=1;endArrow=open;endFill=0;" edge="1" parent="1">
          <mxGeometry relative="1" as="geometry">
            <mxPoint x="601" y="550" as="sourcePoint" />
            <mxPoint x="411" y="550" as="targetPoint" />
          </mxGeometry>
        </mxCell>
        <mxCell id="lHNl9456R37QV3BzGGLT-45" style="edgeStyle=orthogonalEdgeStyle;rounded=0;orthogonalLoop=1;jettySize=auto;html=1;entryX=-0.007;entryY=0.1;entryDx=0;entryDy=0;exitX=1;exitY=0.1;exitDx=0;exitDy=0;exitPerimeter=0;entryPerimeter=0;" edge="1" parent="1">
          <mxGeometry relative="1" as="geometry">
            <mxPoint x="411" y="599" as="sourcePoint" />
            <mxPoint x="601" y="599" as="targetPoint" />
          </mxGeometry>
        </mxCell>
        <mxCell id="lHNl9456R37QV3BzGGLT-46" value="Заполнение полей" style="text;html=1;strokeColor=none;fillColor=none;align=center;verticalAlign=middle;whiteSpace=wrap;rounded=0;" vertex="1" parent="1">
          <mxGeometry x="441" y="569" width="130" height="30" as="geometry" />
        </mxCell>
        <mxCell id="lHNl9456R37QV3BzGGLT-47" style="edgeStyle=orthogonalEdgeStyle;rounded=0;orthogonalLoop=1;jettySize=auto;html=1;entryX=-0.007;entryY=0.1;entryDx=0;entryDy=0;exitX=1;exitY=0.1;exitDx=0;exitDy=0;exitPerimeter=0;entryPerimeter=0;" edge="1" parent="1">
          <mxGeometry relative="1" as="geometry">
            <mxPoint x="610" y="609" as="sourcePoint" />
            <mxPoint x="800" y="609" as="targetPoint" />
          </mxGeometry>
        </mxCell>
        <mxCell id="lHNl9456R37QV3BzGGLT-48" value="Передача данных" style="text;html=1;strokeColor=none;fillColor=none;align=center;verticalAlign=middle;whiteSpace=wrap;rounded=0;" vertex="1" parent="1">
          <mxGeometry x="640" y="579" width="130" height="30" as="geometry" />
        </mxCell>
        <mxCell id="lHNl9456R37QV3BzGGLT-49" value="" style="rounded=0;whiteSpace=wrap;html=1;" vertex="1" parent="1">
          <mxGeometry x="800" y="600" width="10" height="140" as="geometry" />
        </mxCell>
        <mxCell id="lHNl9456R37QV3BzGGLT-50" value="Поверка корректности введённых данных" style="text;html=1;strokeColor=none;fillColor=none;align=center;verticalAlign=middle;whiteSpace=wrap;rounded=0;" vertex="1" parent="1">
          <mxGeometry x="830" y="589.78" width="130" height="30" as="geometry" />
        </mxCell>
        <mxCell id="lHNl9456R37QV3BzGGLT-51" style="edgeStyle=orthogonalEdgeStyle;rounded=0;orthogonalLoop=1;jettySize=auto;html=1;exitX=1;exitY=0.1;exitDx=0;exitDy=0;exitPerimeter=0;" edge="1" parent="1">
          <mxGeometry relative="1" as="geometry">
            <mxPoint x="810" y="619.63" as="sourcePoint" />
            <mxPoint x="810" y="640" as="targetPoint" />
            <Array as="points">
              <mxPoint x="900" y="620" />
              <mxPoint x="900" y="640" />
              <mxPoint x="810" y="640" />
            </Array>
          </mxGeometry>
        </mxCell>
        <mxCell id="lHNl9456R37QV3BzGGLT-52" value="" style="rounded=0;whiteSpace=wrap;html=1;" vertex="1" parent="1">
          <mxGeometry x="1000" y="600" width="10" height="140" as="geometry" />
        </mxCell>
        <mxCell id="lHNl9456R37QV3BzGGLT-53" style="edgeStyle=orthogonalEdgeStyle;rounded=0;orthogonalLoop=1;jettySize=auto;html=1;entryX=-0.007;entryY=0.1;entryDx=0;entryDy=0;exitX=1;exitY=0.1;exitDx=0;exitDy=0;exitPerimeter=0;entryPerimeter=0;" edge="1" parent="1">
          <mxGeometry relative="1" as="geometry">
            <mxPoint x="810" y="680" as="sourcePoint" />
            <mxPoint x="1000" y="680" as="targetPoint" />
          </mxGeometry>
        </mxCell>
        <mxCell id="lHNl9456R37QV3BzGGLT-54" value="Запрос на добавление" style="text;html=1;strokeColor=none;fillColor=none;align=center;verticalAlign=middle;whiteSpace=wrap;rounded=0;" vertex="1" parent="1">
          <mxGeometry x="840" y="650" width="130" height="30" as="geometry" />
        </mxCell>
        <mxCell id="lHNl9456R37QV3BzGGLT-55" value="Сохранение в БД" style="text;html=1;strokeColor=none;fillColor=none;align=center;verticalAlign=middle;whiteSpace=wrap;rounded=0;" vertex="1" parent="1">
          <mxGeometry x="1040" y="660" width="130" height="30" as="geometry" />
        </mxCell>
        <mxCell id="lHNl9456R37QV3BzGGLT-56" style="edgeStyle=orthogonalEdgeStyle;rounded=0;orthogonalLoop=1;jettySize=auto;html=1;exitX=1;exitY=0.1;exitDx=0;exitDy=0;exitPerimeter=0;" edge="1" parent="1">
          <mxGeometry relative="1" as="geometry">
            <mxPoint x="1020" y="689.85" as="sourcePoint" />
            <mxPoint x="1020" y="710.22" as="targetPoint" />
            <Array as="points">
              <mxPoint x="1110" y="690.22" />
              <mxPoint x="1110" y="710.22" />
              <mxPoint x="1020" y="710.22" />
            </Array>
          </mxGeometry>
        </mxCell>
        <mxCell id="lHNl9456R37QV3BzGGLT-57" value="" style="rounded=0;whiteSpace=wrap;html=1;" vertex="1" parent="1">
          <mxGeometry x="1004" y="675" width="16" height="60" as="geometry" />
        </mxCell>
        <mxCell id="lHNl9456R37QV3BzGGLT-58" value="Результат" style="text;html=1;strokeColor=none;fillColor=none;align=center;verticalAlign=middle;whiteSpace=wrap;rounded=0;" vertex="1" parent="1">
          <mxGeometry x="840" y="700" width="130" height="30" as="geometry" />
        </mxCell>
        <mxCell id="lHNl9456R37QV3BzGGLT-59" style="edgeStyle=orthogonalEdgeStyle;rounded=0;orthogonalLoop=1;jettySize=auto;html=1;exitX=0;exitY=0.75;exitDx=0;exitDy=0;entryX=0.992;entryY=0.899;entryDx=0;entryDy=0;entryPerimeter=0;dashed=1;endArrow=open;endFill=0;" edge="1" parent="1">
          <mxGeometry relative="1" as="geometry">
            <mxPoint x="1000" y="730" as="sourcePoint" />
            <mxPoint x="810" y="730" as="targetPoint" />
          </mxGeometry>
        </mxCell>
        <mxCell id="lHNl9456R37QV3BzGGLT-60" value="Сообщение об успешном добавлении" style="text;html=1;strokeColor=none;fillColor=none;align=center;verticalAlign=middle;whiteSpace=wrap;rounded=0;" vertex="1" parent="1">
          <mxGeometry x="640" y="699" width="130" height="30" as="geometry" />
        </mxCell>
        <mxCell id="lHNl9456R37QV3BzGGLT-61" style="edgeStyle=orthogonalEdgeStyle;rounded=0;orthogonalLoop=1;jettySize=auto;html=1;exitX=0;exitY=0.75;exitDx=0;exitDy=0;entryX=0.992;entryY=0.899;entryDx=0;entryDy=0;entryPerimeter=0;dashed=1;endArrow=open;endFill=0;" edge="1" parent="1">
          <mxGeometry relative="1" as="geometry">
            <mxPoint x="800" y="729" as="sourcePoint" />
            <mxPoint x="610" y="729" as="targetPoint" />
          </mxGeometry>
        </mxCell>
        <mxCell id="lHNl9456R37QV3BzGGLT-62" value="Отображение сообщения" style="text;html=1;strokeColor=none;fillColor=none;align=center;verticalAlign=middle;whiteSpace=wrap;rounded=0;" vertex="1" parent="1">
          <mxGeometry x="440" y="699" width="130" height="30" as="geometry" />
        </mxCell>
        <mxCell id="lHNl9456R37QV3BzGGLT-63" style="edgeStyle=orthogonalEdgeStyle;rounded=0;orthogonalLoop=1;jettySize=auto;html=1;exitX=0;exitY=0.75;exitDx=0;exitDy=0;entryX=0.992;entryY=0.899;entryDx=0;entryDy=0;entryPerimeter=0;dashed=1;endArrow=open;endFill=0;" edge="1" parent="1">
          <mxGeometry relative="1" as="geometry">
            <mxPoint x="600" y="729" as="sourcePoint" />
            <mxPoint x="410" y="729" as="targetPoint" />
          </mxGeometry>
        </mxCell>
        <mxCell id="lHNl9456R37QV3BzGGLT-64" value="Добавление учетной записи" style="rounded=1;whiteSpace=wrap;html=1;" vertex="1" parent="1">
          <mxGeometry x="230" y="940" width="90" height="40" as="geometry" />
        </mxCell>
        <mxCell id="lHNl9456R37QV3BzGGLT-65" value="" style="rounded=0;whiteSpace=wrap;html=1;" vertex="1" parent="1">
          <mxGeometry x="400" y="820" width="10" height="360" as="geometry" />
        </mxCell>
        <mxCell id="lHNl9456R37QV3BzGGLT-66" value="" style="endArrow=none;html=1;rounded=0;" edge="1" parent="1">
          <mxGeometry width="50" height="50" relative="1" as="geometry">
            <mxPoint x="200" y="780" as="sourcePoint" />
            <mxPoint x="1160" y="780" as="targetPoint" />
          </mxGeometry>
        </mxCell>
        <mxCell id="lHNl9456R37QV3BzGGLT-67" style="edgeStyle=orthogonalEdgeStyle;rounded=0;orthogonalLoop=1;jettySize=auto;html=1;entryX=0.5;entryY=0;entryDx=0;entryDy=0;dashed=1;endArrow=none;endFill=0;" edge="1" parent="1">
          <mxGeometry relative="1" as="geometry">
            <mxPoint x="604.6700000000001" y="380" as="sourcePoint" />
            <mxPoint x="604.8400000000001" y="460" as="targetPoint" />
          </mxGeometry>
        </mxCell>
        <mxCell id="lHNl9456R37QV3BzGGLT-68" style="edgeStyle=orthogonalEdgeStyle;rounded=0;orthogonalLoop=1;jettySize=auto;html=1;entryX=0.5;entryY=0;entryDx=0;entryDy=0;dashed=1;endArrow=none;endFill=0;" edge="1" parent="1">
          <mxGeometry relative="1" as="geometry">
            <mxPoint x="804.6799999999998" y="380" as="sourcePoint" />
            <mxPoint x="804.8499999999999" y="460" as="targetPoint" />
          </mxGeometry>
        </mxCell>
        <mxCell id="lHNl9456R37QV3BzGGLT-69" style="edgeStyle=orthogonalEdgeStyle;rounded=0;orthogonalLoop=1;jettySize=auto;html=1;entryX=0.5;entryY=0;entryDx=0;entryDy=0;dashed=1;endArrow=none;endFill=0;" edge="1" parent="1" target="lHNl9456R37QV3BzGGLT-52">
          <mxGeometry relative="1" as="geometry">
            <mxPoint x="1004.6300000000001" y="370" as="sourcePoint" />
            <mxPoint x="1004.8000000000002" y="450" as="targetPoint" />
          </mxGeometry>
        </mxCell>
        <mxCell id="lHNl9456R37QV3BzGGLT-70" style="edgeStyle=orthogonalEdgeStyle;rounded=0;orthogonalLoop=1;jettySize=auto;html=1;dashed=1;endArrow=none;endFill=0;exitX=0.5;exitY=1;exitDx=0;exitDy=0;entryX=0.5;entryY=0;entryDx=0;entryDy=0;" edge="1" parent="1" source="lHNl9456R37QV3BzGGLT-38" target="lHNl9456R37QV3BzGGLT-49">
          <mxGeometry relative="1" as="geometry">
            <mxPoint x="870" y="410" as="sourcePoint" />
            <mxPoint x="870" y="480" as="targetPoint" />
          </mxGeometry>
        </mxCell>
        <mxCell id="lHNl9456R37QV3BzGGLT-71" style="edgeStyle=orthogonalEdgeStyle;rounded=0;orthogonalLoop=1;jettySize=auto;html=1;entryX=0.5;entryY=0;entryDx=0;entryDy=0;dashed=1;endArrow=none;endFill=0;" edge="1" parent="1">
          <mxGeometry relative="1" as="geometry">
            <mxPoint x="404.6700000000001" y="740" as="sourcePoint" />
            <mxPoint x="404.84000000000015" y="820" as="targetPoint" />
          </mxGeometry>
        </mxCell>
        <mxCell id="lHNl9456R37QV3BzGGLT-72" value="Нажатие кнопки &quot;Добавить сотрудника&quot;" style="text;html=1;strokeColor=none;fillColor=none;align=center;verticalAlign=middle;whiteSpace=wrap;rounded=0;" vertex="1" parent="1">
          <mxGeometry x="441" y="810" width="130" height="30" as="geometry" />
        </mxCell>
        <mxCell id="lHNl9456R37QV3BzGGLT-73" style="edgeStyle=orthogonalEdgeStyle;rounded=0;orthogonalLoop=1;jettySize=auto;html=1;entryX=-0.007;entryY=0.1;entryDx=0;entryDy=0;exitX=1;exitY=0.1;exitDx=0;exitDy=0;exitPerimeter=0;entryPerimeter=0;" edge="1" parent="1">
          <mxGeometry relative="1" as="geometry">
            <mxPoint x="411" y="840" as="sourcePoint" />
            <mxPoint x="601" y="840" as="targetPoint" />
          </mxGeometry>
        </mxCell>
        <mxCell id="lHNl9456R37QV3BzGGLT-74" value="" style="rounded=0;whiteSpace=wrap;html=1;" vertex="1" parent="1">
          <mxGeometry x="600" y="820" width="10" height="120" as="geometry" />
        </mxCell>
        <mxCell id="lHNl9456R37QV3BzGGLT-75" value="Запрос для открытие формы" style="text;html=1;strokeColor=none;fillColor=none;align=center;verticalAlign=middle;whiteSpace=wrap;rounded=0;" vertex="1" parent="1">
          <mxGeometry x="640" y="820" width="130" height="30" as="geometry" />
        </mxCell>
        <mxCell id="lHNl9456R37QV3BzGGLT-76" value="" style="rounded=0;whiteSpace=wrap;html=1;" vertex="1" parent="1">
          <mxGeometry x="800" y="820" width="10" height="120" as="geometry" />
        </mxCell>
        <mxCell id="lHNl9456R37QV3BzGGLT-77" value="Открытие формы" style="text;html=1;strokeColor=none;fillColor=none;align=center;verticalAlign=middle;whiteSpace=wrap;rounded=0;" vertex="1" parent="1">
          <mxGeometry x="640" y="880" width="130" height="30" as="geometry" />
        </mxCell>
        <mxCell id="lHNl9456R37QV3BzGGLT-78" style="edgeStyle=orthogonalEdgeStyle;rounded=0;orthogonalLoop=1;jettySize=auto;html=1;exitX=0;exitY=0.75;exitDx=0;exitDy=0;entryX=0.992;entryY=0.899;entryDx=0;entryDy=0;entryPerimeter=0;dashed=1;endArrow=open;endFill=0;" edge="1" parent="1">
          <mxGeometry relative="1" as="geometry">
            <mxPoint x="800" y="910" as="sourcePoint" />
            <mxPoint x="610" y="910" as="targetPoint" />
          </mxGeometry>
        </mxCell>
        <mxCell id="lHNl9456R37QV3BzGGLT-79" style="edgeStyle=orthogonalEdgeStyle;rounded=0;orthogonalLoop=1;jettySize=auto;html=1;exitX=0;exitY=0.75;exitDx=0;exitDy=0;entryX=0.992;entryY=0.899;entryDx=0;entryDy=0;entryPerimeter=0;dashed=1;endArrow=open;endFill=0;" edge="1" parent="1">
          <mxGeometry relative="1" as="geometry">
            <mxPoint x="601" y="910" as="sourcePoint" />
            <mxPoint x="411" y="910" as="targetPoint" />
          </mxGeometry>
        </mxCell>
        <mxCell id="lHNl9456R37QV3BzGGLT-80" value="Отображение формы" style="text;html=1;strokeColor=none;fillColor=none;align=center;verticalAlign=middle;whiteSpace=wrap;rounded=0;" vertex="1" parent="1">
          <mxGeometry x="441" y="880" width="130" height="30" as="geometry" />
        </mxCell>
        <mxCell id="lHNl9456R37QV3BzGGLT-81" style="edgeStyle=orthogonalEdgeStyle;rounded=0;orthogonalLoop=1;jettySize=auto;html=1;entryX=-0.007;entryY=0.1;entryDx=0;entryDy=0;exitX=1;exitY=0.1;exitDx=0;exitDy=0;exitPerimeter=0;entryPerimeter=0;" edge="1" parent="1">
          <mxGeometry relative="1" as="geometry">
            <mxPoint x="410" y="970" as="sourcePoint" />
            <mxPoint x="600" y="970" as="targetPoint" />
          </mxGeometry>
        </mxCell>
        <mxCell id="lHNl9456R37QV3BzGGLT-82" value="Заполнение полей" style="text;html=1;strokeColor=none;fillColor=none;align=center;verticalAlign=middle;whiteSpace=wrap;rounded=0;" vertex="1" parent="1">
          <mxGeometry x="440" y="940" width="130" height="30" as="geometry" />
        </mxCell>
        <mxCell id="lHNl9456R37QV3BzGGLT-83" value="" style="rounded=0;whiteSpace=wrap;html=1;" vertex="1" parent="1">
          <mxGeometry x="600" y="960" width="10" height="220" as="geometry" />
        </mxCell>
        <mxCell id="lHNl9456R37QV3BzGGLT-84" style="edgeStyle=orthogonalEdgeStyle;rounded=0;orthogonalLoop=1;jettySize=auto;html=1;entryX=-0.007;entryY=0.1;entryDx=0;entryDy=0;exitX=1;exitY=0.1;exitDx=0;exitDy=0;exitPerimeter=0;entryPerimeter=0;" edge="1" parent="1">
          <mxGeometry relative="1" as="geometry">
            <mxPoint x="410" y="1010" as="sourcePoint" />
            <mxPoint x="600" y="1010" as="targetPoint" />
          </mxGeometry>
        </mxCell>
        <mxCell id="lHNl9456R37QV3BzGGLT-85" value="Назначение роли" style="text;html=1;strokeColor=none;fillColor=none;align=center;verticalAlign=middle;whiteSpace=wrap;rounded=0;" vertex="1" parent="1">
          <mxGeometry x="440" y="980" width="130" height="30" as="geometry" />
        </mxCell>
        <mxCell id="lHNl9456R37QV3BzGGLT-86" style="edgeStyle=orthogonalEdgeStyle;rounded=0;orthogonalLoop=1;jettySize=auto;html=1;entryX=-0.007;entryY=0.1;entryDx=0;entryDy=0;exitX=1;exitY=0.1;exitDx=0;exitDy=0;exitPerimeter=0;entryPerimeter=0;" edge="1" parent="1">
          <mxGeometry relative="1" as="geometry">
            <mxPoint x="411" y="1044.4099999999999" as="sourcePoint" />
            <mxPoint x="601" y="1044.4099999999999" as="targetPoint" />
          </mxGeometry>
        </mxCell>
        <mxCell id="lHNl9456R37QV3BzGGLT-87" value="Привязка к складу" style="text;html=1;strokeColor=none;fillColor=none;align=center;verticalAlign=middle;whiteSpace=wrap;rounded=0;" vertex="1" parent="1">
          <mxGeometry x="441" y="1014.41" width="130" height="30" as="geometry" />
        </mxCell>
        <mxCell id="lHNl9456R37QV3BzGGLT-88" style="edgeStyle=orthogonalEdgeStyle;rounded=0;orthogonalLoop=1;jettySize=auto;html=1;entryX=-0.007;entryY=0.1;entryDx=0;entryDy=0;exitX=1;exitY=0.1;exitDx=0;exitDy=0;exitPerimeter=0;entryPerimeter=0;" edge="1" parent="1">
          <mxGeometry relative="1" as="geometry">
            <mxPoint x="610" y="970" as="sourcePoint" />
            <mxPoint x="800" y="970" as="targetPoint" />
          </mxGeometry>
        </mxCell>
        <mxCell id="lHNl9456R37QV3BzGGLT-89" value="Передача данных" style="text;html=1;strokeColor=none;fillColor=none;align=center;verticalAlign=middle;whiteSpace=wrap;rounded=0;" vertex="1" parent="1">
          <mxGeometry x="640" y="940" width="130" height="30" as="geometry" />
        </mxCell>
        <mxCell id="lHNl9456R37QV3BzGGLT-90" value="" style="rounded=0;whiteSpace=wrap;html=1;" vertex="1" parent="1">
          <mxGeometry x="800" y="961" width="10" height="219" as="geometry" />
        </mxCell>
        <mxCell id="lHNl9456R37QV3BzGGLT-91" value="Поверка корректности введённых данных" style="text;html=1;strokeColor=none;fillColor=none;align=center;verticalAlign=middle;whiteSpace=wrap;rounded=0;" vertex="1" parent="1">
          <mxGeometry x="830" y="950.78" width="130" height="30" as="geometry" />
        </mxCell>
        <mxCell id="lHNl9456R37QV3BzGGLT-92" style="edgeStyle=orthogonalEdgeStyle;rounded=0;orthogonalLoop=1;jettySize=auto;html=1;exitX=1;exitY=0.1;exitDx=0;exitDy=0;exitPerimeter=0;" edge="1" parent="1">
          <mxGeometry relative="1" as="geometry">
            <mxPoint x="810" y="980.63" as="sourcePoint" />
            <mxPoint x="810" y="1001" as="targetPoint" />
            <Array as="points">
              <mxPoint x="900" y="981" />
              <mxPoint x="900" y="1001" />
              <mxPoint x="810" y="1001" />
            </Array>
          </mxGeometry>
        </mxCell>
        <mxCell id="lHNl9456R37QV3BzGGLT-93" value="" style="rounded=0;whiteSpace=wrap;html=1;" vertex="1" parent="1">
          <mxGeometry x="1000" y="1020" width="10" height="160" as="geometry" />
        </mxCell>
        <mxCell id="lHNl9456R37QV3BzGGLT-94" style="edgeStyle=orthogonalEdgeStyle;rounded=0;orthogonalLoop=1;jettySize=auto;html=1;entryX=-0.007;entryY=0.1;entryDx=0;entryDy=0;exitX=1;exitY=0.1;exitDx=0;exitDy=0;exitPerimeter=0;entryPerimeter=0;" edge="1" parent="1">
          <mxGeometry relative="1" as="geometry">
            <mxPoint x="810" y="1041" as="sourcePoint" />
            <mxPoint x="1000" y="1041" as="targetPoint" />
          </mxGeometry>
        </mxCell>
        <mxCell id="lHNl9456R37QV3BzGGLT-95" value="Запрос на добавление" style="text;html=1;strokeColor=none;fillColor=none;align=center;verticalAlign=middle;whiteSpace=wrap;rounded=0;" vertex="1" parent="1">
          <mxGeometry x="840" y="1011" width="130" height="30" as="geometry" />
        </mxCell>
        <mxCell id="lHNl9456R37QV3BzGGLT-96" value="Выборка из БД для привязки к складу" style="text;html=1;strokeColor=none;fillColor=none;align=center;verticalAlign=middle;whiteSpace=wrap;rounded=0;" vertex="1" parent="1">
          <mxGeometry x="1040" y="1021" width="130" height="30" as="geometry" />
        </mxCell>
        <mxCell id="lHNl9456R37QV3BzGGLT-97" style="edgeStyle=orthogonalEdgeStyle;rounded=0;orthogonalLoop=1;jettySize=auto;html=1;exitX=1;exitY=0.1;exitDx=0;exitDy=0;exitPerimeter=0;" edge="1" parent="1">
          <mxGeometry relative="1" as="geometry">
            <mxPoint x="1020" y="1050.85" as="sourcePoint" />
            <mxPoint x="1020" y="1071.22" as="targetPoint" />
            <Array as="points">
              <mxPoint x="1110" y="1051.22" />
              <mxPoint x="1110" y="1071.22" />
              <mxPoint x="1020" y="1071.22" />
            </Array>
          </mxGeometry>
        </mxCell>
        <mxCell id="lHNl9456R37QV3BzGGLT-98" value="" style="rounded=0;whiteSpace=wrap;html=1;" vertex="1" parent="1">
          <mxGeometry x="1004" y="1036" width="16" height="60" as="geometry" />
        </mxCell>
        <mxCell id="lHNl9456R37QV3BzGGLT-99" value="Результат" style="text;html=1;strokeColor=none;fillColor=none;align=center;verticalAlign=middle;whiteSpace=wrap;rounded=0;" vertex="1" parent="1">
          <mxGeometry x="840" y="1140.17" width="130" height="30" as="geometry" />
        </mxCell>
        <mxCell id="lHNl9456R37QV3BzGGLT-100" style="edgeStyle=orthogonalEdgeStyle;rounded=0;orthogonalLoop=1;jettySize=auto;html=1;exitX=0;exitY=0.75;exitDx=0;exitDy=0;entryX=0.992;entryY=0.899;entryDx=0;entryDy=0;entryPerimeter=0;dashed=1;endArrow=open;endFill=0;" edge="1" parent="1">
          <mxGeometry relative="1" as="geometry">
            <mxPoint x="1000" y="1170.17" as="sourcePoint" />
            <mxPoint x="810" y="1170.17" as="targetPoint" />
          </mxGeometry>
        </mxCell>
        <mxCell id="lHNl9456R37QV3BzGGLT-101" value="Сообщение об успешном добавлении" style="text;html=1;strokeColor=none;fillColor=none;align=center;verticalAlign=middle;whiteSpace=wrap;rounded=0;" vertex="1" parent="1">
          <mxGeometry x="640" y="1139.17" width="130" height="30" as="geometry" />
        </mxCell>
        <mxCell id="lHNl9456R37QV3BzGGLT-102" style="edgeStyle=orthogonalEdgeStyle;rounded=0;orthogonalLoop=1;jettySize=auto;html=1;exitX=0;exitY=0.75;exitDx=0;exitDy=0;entryX=0.992;entryY=0.899;entryDx=0;entryDy=0;entryPerimeter=0;dashed=1;endArrow=open;endFill=0;" edge="1" parent="1">
          <mxGeometry relative="1" as="geometry">
            <mxPoint x="800" y="1169.17" as="sourcePoint" />
            <mxPoint x="610" y="1169.17" as="targetPoint" />
          </mxGeometry>
        </mxCell>
        <mxCell id="lHNl9456R37QV3BzGGLT-103" style="edgeStyle=orthogonalEdgeStyle;rounded=0;orthogonalLoop=1;jettySize=auto;html=1;dashed=1;endArrow=none;endFill=0;exitX=0.5;exitY=1;exitDx=0;exitDy=0;entryX=0.5;entryY=0;entryDx=0;entryDy=0;" edge="1" parent="1" target="lHNl9456R37QV3BzGGLT-90">
          <mxGeometry relative="1" as="geometry">
            <mxPoint x="805" y="941" as="sourcePoint" />
            <mxPoint x="870" y="841" as="targetPoint" />
          </mxGeometry>
        </mxCell>
        <mxCell id="lHNl9456R37QV3BzGGLT-104" style="edgeStyle=orthogonalEdgeStyle;rounded=0;orthogonalLoop=1;jettySize=auto;html=1;dashed=1;endArrow=none;endFill=0;exitX=0.5;exitY=1;exitDx=0;exitDy=0;entryX=0.5;entryY=0;entryDx=0;entryDy=0;" edge="1" parent="1">
          <mxGeometry relative="1" as="geometry">
            <mxPoint x="604.9000000000001" y="940" as="sourcePoint" />
            <mxPoint x="604.9000000000001" y="960" as="targetPoint" />
          </mxGeometry>
        </mxCell>
        <mxCell id="lHNl9456R37QV3BzGGLT-105" value="" style="rounded=0;whiteSpace=wrap;html=1;" vertex="1" parent="1">
          <mxGeometry x="1004" y="1111" width="16" height="60" as="geometry" />
        </mxCell>
        <mxCell id="lHNl9456R37QV3BzGGLT-106" style="edgeStyle=orthogonalEdgeStyle;rounded=0;orthogonalLoop=1;jettySize=auto;html=1;exitX=1;exitY=0.1;exitDx=0;exitDy=0;exitPerimeter=0;" edge="1" parent="1">
          <mxGeometry relative="1" as="geometry">
            <mxPoint x="1020" y="1125.85" as="sourcePoint" />
            <mxPoint x="1020" y="1146.22" as="targetPoint" />
            <Array as="points">
              <mxPoint x="1110" y="1126.22" />
              <mxPoint x="1110" y="1146.22" />
              <mxPoint x="1020" y="1146.22" />
            </Array>
          </mxGeometry>
        </mxCell>
        <mxCell id="lHNl9456R37QV3BzGGLT-107" value="Сохранение в БД" style="text;html=1;strokeColor=none;fillColor=none;align=center;verticalAlign=middle;whiteSpace=wrap;rounded=0;" vertex="1" parent="1">
          <mxGeometry x="1040" y="1096" width="130" height="30" as="geometry" />
        </mxCell>
        <mxCell id="lHNl9456R37QV3BzGGLT-108" style="edgeStyle=orthogonalEdgeStyle;rounded=0;orthogonalLoop=1;jettySize=auto;html=1;exitX=0;exitY=0.75;exitDx=0;exitDy=0;entryX=0.992;entryY=0.899;entryDx=0;entryDy=0;entryPerimeter=0;dashed=1;endArrow=open;endFill=0;" edge="1" parent="1">
          <mxGeometry relative="1" as="geometry">
            <mxPoint x="600" y="1169.1699999999998" as="sourcePoint" />
            <mxPoint x="410" y="1169.1699999999998" as="targetPoint" />
          </mxGeometry>
        </mxCell>
        <mxCell id="lHNl9456R37QV3BzGGLT-109" value="Отображение сообщения" style="text;html=1;strokeColor=none;fillColor=none;align=center;verticalAlign=middle;whiteSpace=wrap;rounded=0;" vertex="1" parent="1">
          <mxGeometry x="440" y="1139.1699999999998" width="130" height="30" as="geometry" />
        </mxCell>
        <mxCell id="lHNl9456R37QV3BzGGLT-110" style="edgeStyle=orthogonalEdgeStyle;rounded=0;orthogonalLoop=1;jettySize=auto;html=1;entryX=-0.007;entryY=0.1;entryDx=0;entryDy=0;exitX=1;exitY=0.1;exitDx=0;exitDy=0;exitPerimeter=0;entryPerimeter=0;" edge="1" parent="1">
          <mxGeometry relative="1" as="geometry">
            <mxPoint x="610" y="850" as="sourcePoint" />
            <mxPoint x="800" y="850" as="targetPoint" />
          </mxGeometry>
        </mxCell>
      </root>
    </mxGraphModel>
  </diagram>
</mxfile>
